<svg width="24" height="30" viewBox="0 0 24 30" fill="none" xmlns="http://www.w3.org/2000/svg">
<path fill-rule="evenodd" clip-rule="evenodd" d="M10.9241 10.1527L11.2734 6.92466L9.8401 9.06866L7.91743 7.14732L12.0774 0.925991C12.4174 0.413991 13.0641 0.203324 13.6401 0.413991C14.2174 0.623324 14.5774 1.20066 14.5108 1.80999L13.4854 11.2673H21.3334C21.8254 11.2673 22.2774 11.538 22.5094 11.9713C22.7414 12.406 22.7148 12.9327 22.4414 13.3407L19.1041 18.334L17.1828 16.4113L18.8388 13.934H14.7041L10.9241 10.1527ZM23.6093 24.7241L2.27597 3.39079C1.75463 2.86946 0.911967 2.86946 0.390634 3.39079C-0.1307 3.91212 -0.1307 4.75479 0.390634 5.27612L21.724 26.6095C21.984 26.8695 22.3253 27.0001 22.6666 27.0001C23.008 27.0001 23.3493 26.8695 23.6093 26.6095C24.1306 26.0881 24.1306 25.2455 23.6093 24.7241ZM12.7265 23.0756L13.0758 19.8476L9.29583 16.0663H5.16117L6.81717 13.5889L4.89583 11.6663L1.5585 16.6596C1.28517 17.0676 1.2585 17.5943 1.4905 18.0289C1.7225 18.4623 2.1745 18.7329 2.6665 18.7329H10.5145L9.48917 28.1903C9.4225 28.7996 9.7825 29.3769 10.3598 29.5863C10.5092 29.6409 10.6625 29.6663 10.8145 29.6663C11.2505 29.6663 11.6705 29.4529 11.9225 29.0743L16.0825 22.8529L14.1598 20.9316L12.7265 23.0756Z" fill="#E4E4E7"/>
</svg>
